<?xml version="1.0" encoding="UTF-8" standalone="no"?>
<svg
   width="17"
   height="20"
   viewBox="0 0 17 20"
   fill="none"
   version="1.1"
   id="svg8"
   sodipodi:docname="glassCart.svg"
   inkscape:version="1.4 (e7c3feb1, 2024-10-09)"
   xmlns:inkscape="http://www.inkscape.org/namespaces/inkscape"
   xmlns:sodipodi="http://sodipodi.sourceforge.net/DTD/sodipodi-0.dtd"
   xmlns="http://www.w3.org/2000/svg"
   xmlns:svg="http://www.w3.org/2000/svg">
  <defs
     id="defs8" />
  <sodipodi:namedview
     id="namedview8"
     pagecolor="#ffffff"
     bordercolor="#000000"
     borderopacity="0.25"
     inkscape:showpageshadow="2"
     inkscape:pageopacity="0.0"
     inkscape:pagecheckerboard="0"
     inkscape:deskcolor="#d1d1d1"
     inkscape:zoom="36.024445"
     inkscape:cx="6.1208438"
     inkscape:cy="11.853063"
     inkscape:window-width="1712"
     inkscape:window-height="1035"
     inkscape:window-x="8"
     inkscape:window-y="46"
     inkscape:window-maximized="0"
     inkscape:current-layer="svg8" />
  <path
     d="M2.13298 18.114L0.503329 20L0.5 18.1141L2.13298 18.114Z"
     fill="white"
     id="path1" />
  <path
     d="M15.2467 18.114L16.8763 20L16.8797 18.1141L15.2467 18.114Z"
     fill="white"
     id="path2" />
  <path
     style="fill:#ffffff;stroke-linecap:round"
     d="M 1,17.5 A 0.5,0.5 0 0 0 0.5,18 0.5,0.5 0 0 0 1,18.5 H 16 A 0.5,0.5 0 0 0 16.5,18 0.5,0.5 0 0 0 16,17.5 Z"
     id="path3" />
  <path
     style="fill:#ffffff;stroke-linecap:round"
     d="M 15.681641,0.63671875 A 0.5,0.5 0 0 0 15.097656,1.0351562 L 12.224609,16.359375 a 0.5,0.5 0 0 0 0.398438,0.583984 0.5,0.5 0 0 0 0.583984,-0.398437 L 16.080078,1.2207031 A 0.5,0.5 0 0 0 15.681641,0.63671875 Z"
     id="line3" />
  <path
     style="fill:#ffffff;stroke-linecap:round"
     d="M 13.935547,1.6738281 A 0.5,0.5 0 0 0 13.351563,2.0722656 L 10.669922,16.378906 a 0.5,0.5 0 0 0 0.398437,0.582031 0.5,0.5 0 0 0 0.583985,-0.398437 L 14.333984,2.2578125 A 0.5,0.5 0 0 0 13.935547,1.6738281 Z"
     id="line4" />
  <path
     style="fill:#ffffff;stroke-linecap:round"
     d="M 12.1875,2.7109375 A 0.5,0.5 0 0 0 11.605469,3.109375 L 9.1132813,16.396484 a 0.5,0.5 0 0 0 0.4003906,0.582032 0.5,0.5 0 0 0 0.5820311,-0.398438 L 12.587891,3.2949219 A 0.5,0.5 0 0 0 12.1875,2.7109375 Z"
     id="line5" />
  <path
     style="fill:#ffffff;stroke-linecap:round"
     d="M 10.25,4.7851562 A 0.5,0.5 0 0 0 9.6679688,5.1835937 L 7.5585937,16.431641 a 0.5,0.5 0 0 0 0.3984375,0.583984 0.5,0.5 0 0 0 0.5839844,-0.400391 L 10.650391,5.3671875 A 0.5,0.5 0 0 0 10.25,4.7851562 Z"
     id="line6" />
  <path
     style="fill:#ffffff;stroke-linecap:round"
     d="M 8.5039063,5.8222656 A 0.5,0.5 0 0 0 7.9199219,6.2207031 L 6.0019531,16.449219 a 0.5,0.5 0 0 0 0.4003906,0.583984 0.5,0.5 0 0 0 0.5839844,-0.400391 L 8.9042969,6.4042969 A 0.5,0.5 0 0 0 8.5039063,5.8222656 Z"
     id="line7" />
  <path
     style="fill:#ffffff;stroke-linecap:round"
     d="M 6.7578125,6.7539062 A 0.5,0.5 0 0 0 6.1738281,7.1542969 L 4.4472656,16.363281 a 0.5,0.5 0 0 0 0.3984375,0.583985 0.5,0.5 0 0 0 0.5839844,-0.400391 L 7.15625,7.3378906 A 0.5,0.5 0 0 0 6.7578125,6.7539062 Z"
     id="line8" />
  <path
     d="M15.4557 18.5L16.8766 -6.10567e-05L16.8766 18.5097L15.4557 18.5Z"
     fill="white"
     id="path8" />
</svg>
